<?xml version="1.0" encoding="utf-8"?>
<!-- Generator: Adobe Illustrator 24.2.1, SVG Export Plug-In . SVG Version: 6.00 Build 0)  -->
<svg version="1.1" id="Layer_1" xmlns="http://www.w3.org/2000/svg" xmlns:xlink="http://www.w3.org/1999/xlink" x="0px" y="0px"
	 viewBox="0 0 100 100" style="enable-background:new 0 0 100 100;" xml:space="preserve">
<path d="M81.11,21.13h-60.9v0c-2.17,0.02-3.92,1.78-3.92,3.96c0,2.18,1.75,3.94,3.92,3.96v0h60.9c2.19,0,3.96-1.77,3.96-3.96
	C85.07,22.9,83.3,21.13,81.11,21.13z"/>
<path d="M81.11,46.32h-60.9v0c-2.17,0.02-3.92,1.78-3.92,3.96c0,2.18,1.75,3.94,3.92,3.96v0h60.9c2.19,0,3.96-1.77,3.96-3.96
	C85.07,48.1,83.3,46.32,81.11,46.32z"/>
<path d="M81.11,71.52h-60.9v0c-2.17,0.02-3.92,1.78-3.92,3.96c0,2.18,1.75,3.94,3.92,3.96v0h60.9c2.19,0,3.96-1.77,3.96-3.96
	C85.07,73.29,83.3,71.52,81.11,71.52z"/>
</svg>
